<?xml version="1.0" encoding="UTF-8"?>
<svg width="19px" height="17px" viewBox="0 0 19 17" version="1.1" xmlns="http://www.w3.org/2000/svg" xmlns:xlink="http://www.w3.org/1999/xlink">
    <title>Fill 118</title>
    <g id="Games---Lucky-Spades-Banner" stroke="none" stroke-width="1" fill="none" fill-rule="evenodd">
        <g id="Assets" transform="translate(-32, -234)" fill="#3AD3AA">
            <path d="M41.4546882,250.776336 L41.4063744,250.776336 L41.3979893,250.775949 L38.8796833,250.76395 C38.6089664,250.762789 38.3753832,250.611831 38.2703706,250.370298 C38.165358,250.128378 38.2164668,249.860524 38.4045312,249.67202 L38.4540429,249.622475 C38.9020434,249.173472 39.3272845,248.747693 39.5297233,247.641442 C38.6628702,248.206953 37.5955748,248.422552 36.4975343,248.248757 C35.2457681,248.050963 34.1644976,247.377459 33.5300298,246.401651 C32.8923677,245.420811 32.7598043,244.223985 33.1471131,242.93968 C33.6661868,241.21992 35.1838785,240.223598 36.6512599,239.259789 C37.1691358,238.91994 37.7045803,238.568866 38.1765381,238.195341 C39.9330036,236.805753 41.3337041,234.838268 41.3476791,234.818527 L41.4299323,234.776336 L41.5121856,234.818527 C41.5261606,234.838268 42.926861,236.805753 44.6837259,238.195341 C45.1556837,238.568866 45.6907289,238.920327 46.2086047,239.259789 C47.6763855,240.223598 49.1940771,241.21992 49.7127515,242.93968 C50.1000604,244.223985 49.9674969,245.420811 49.3298349,246.401651 C48.6957664,247.377459 47.6144959,248.050963 46.3627297,248.248757 C45.2646892,248.422552 44.1973938,248.20734 43.3301414,247.641442 C43.5329794,248.747693 43.9578213,249.173472 44.4058218,249.622475 L44.4553335,249.67202 C44.6433979,249.860524 44.694906,250.128378 44.5898933,250.369911 C44.4848807,250.611831 44.2512976,250.762789 43.9801814,250.76395 L41.4618753,250.775949 L41.4546882,250.776336 L41.4546882,250.776336 Z" id="Fill-118" transform="translate(41.4299, 242.7763) rotate(1) translate(-41.4299, -242.7763)"></path>
        </g>
    </g>
</svg>