<?xml version="1.0" encoding="UTF-8"?>
<svg width="194px" height="67px" viewBox="0 0 194 67" version="1.1" xmlns="http://www.w3.org/2000/svg" xmlns:xlink="http://www.w3.org/1999/xlink">
    <title>Group</title>
    <g id="Games---Lucky-Spades-Banner" stroke="none" stroke-width="1" fill="none" fill-rule="evenodd">
        <g id="Assets" transform="translate(-57, -41)">
            <g id="Group" transform="translate(56.8924, 40.2715)">
                <path d="M31.1575046,0.728515625 L31.1752612,0.729434921 L36.5081446,0.757933082 C37.0814274,0.760690969 37.5760741,1.11921622 37.7984538,1.69285664 C38.0208334,2.26741634 37.912603,2.90356885 37.514349,3.35126577 L37.4095008,3.4689356 C36.4607938,4.53531841 35.5602831,5.54654349 35.1315893,8.17389012 C36.9672782,6.83079935 39.2274332,6.31875174 41.5526955,6.73151543 C44.2034945,7.20127545 46.4932437,8.80084967 47.8368225,11.1183937 C49.1871658,13.4478886 49.4678883,16.2903503 48.6477049,19.3405729 C47.6515414,23.0420876 44.9185812,25.3324936 42.1020927,27.4331332 L41.5187214,27.8654411 C41.421475,27.9371747 41.3242649,28.0087828 41.2271587,28.0803155 C40.1304805,28.887457 38.996598,29.721258 37.997158,30.6083782 C34.9471072,33.3146004 32.4036325,36.9436971 31.5704859,38.1883407 L31.4609111,38.3530781 C31.3476441,38.5245173 31.2859437,38.6217486 31.2818005,38.6283124 L31.1076172,38.7285156 L30.9334339,38.6283124 C30.9292907,38.6217486 30.8675903,38.5245173 30.7543209,38.3530781 L30.6447435,38.1883407 C29.8115745,36.9436971 27.267975,33.3146004 24.2172308,30.6083782 C23.2177908,29.721258 22.0847539,28.8865377 20.9880756,28.0803155 L20.6964361,27.8654411 L20.1129261,27.4331332 C17.2958151,25.3324936 14.5629267,23.0420876 13.5675295,19.3405729 C12.747346,16.2903503 13.0280686,13.4478886 14.3784118,11.1183937 C15.7211451,8.80084967 18.0108943,7.20127545 20.6616934,6.73151543 C22.9869557,6.31875174 25.2471106,6.82988005 27.0836451,8.17389012 C26.6541057,5.54654349 25.7544406,4.53531841 24.8057336,3.4689356 L24.7008854,3.35126577 C24.3026314,2.90356885 24.1935554,2.26741634 24.4159351,1.69377593 C24.6383147,1.11921622 25.1329614,0.760690969 25.7070898,0.757933082 L31.0399732,0.729434921 L31.0551931,0.728515625 L31.1575046,0.728515625 Z M28.796875,10 L23,10 L23,22.7011719 C23,24.1959635 23.3623047,25.4970703 24.0869141,26.6044922 C24.8115234,27.7119141 25.8255208,28.5686849 27.1289062,29.1748047 C28.4322917,29.7809245 29.9498698,30.0839844 31.6816406,30.0839844 C33.4407552,30.0839844 34.9720052,29.7786458 36.2753906,29.1679688 C37.578776,28.5572917 38.5904948,27.6982422 39.3105469,26.5908203 C40.030599,25.4833984 40.390625,24.186849 40.390625,22.7011719 L40.390625,10 L34.59375,10 L34.59375,22.1269531 C34.59375,23.1660156 34.3476562,23.9635417 33.8554688,24.5195312 C33.3632812,25.0755208 32.6432292,25.3535156 31.6953125,25.3535156 C30.7565104,25.3535156 30.038737,25.0755208 29.5419922,24.5195312 C29.0452474,23.9635417 28.796875,23.1660156 28.796875,22.1269531 L28.796875,10 Z" id="Combined-Shape" fill="#FFFFFF"></path>
                <path d="M106.278505,66.5676104 L106.181877,66.5676104 L106.165107,66.5666911 L101.128495,66.538193 C100.587061,66.5354351 100.119895,66.1769098 99.9098695,65.6032694 C99.6998443,65.0287097 99.8020619,64.3925572 100.178191,63.9448603 L100.277214,63.8271905 C101.173215,62.7608077 102.023697,61.7495826 102.428575,59.1222359 C100.694869,60.4653267 98.5602779,60.9773743 96.3641968,60.5646106 C93.8606644,60.0948506 91.6981235,58.4952764 90.4291879,56.1777324 C89.1538637,53.8482375 88.8887368,51.0057757 89.6633545,47.9555532 C90.7015019,43.8711231 93.7368853,41.5048564 96.6716481,39.2158106 C97.7073998,38.4086691 98.7782888,37.574868 99.7222044,36.6877479 C103.235136,33.3874769 106.036536,28.7146977 106.064486,28.6678137 L106.228993,28.5676104 L106.393499,28.6678137 C106.421449,28.7146977 109.22285,33.3874769 112.73658,36.6877479 C113.680496,37.574868 114.750586,38.4095884 115.786338,39.2158106 C118.721899,41.5048564 121.757282,43.8711231 122.794631,47.9555532 C123.569249,51.0057757 123.304122,53.8482375 122.028798,56.1777324 C120.760661,58.4952764 118.59812,60.0948506 116.094588,60.5646106 C113.898507,60.9773743 111.763916,60.466246 110.029411,59.1222359 C110.435087,61.7495826 111.284771,62.7608077 112.180772,63.8271905 L112.279795,63.9448603 C112.655924,64.3925572 112.75894,65.0287097 112.548915,65.6023501 C112.33889,66.1769098 111.871723,66.5354351 111.329491,66.538193 L106.292879,66.5666911 L106.278505,66.5676104 L106.278505,66.5676104 Z" id="Fill-118" fill="#3AD3AA" transform="translate(106.229, 47.5676) rotate(1) translate(-106.229, -47.5676)"></path>
                <g id="SPADES" transform="translate(35.1076, 29.7285)" fill-rule="nonzero">
                    <path d="M18.8423828,27.3554688 C20.6561849,27.3554688 22.2056641,27.0843099 23.4908203,26.5419922 C24.7759766,25.9996745 25.7580729,25.2294922 26.4371094,24.2314453 C27.1161458,23.2333984 27.4556641,22.0553385 27.4556641,20.6972656 L27.4556641,20.6835938 C27.4556641,19.0794271 26.9452474,17.8261719 25.9244141,16.9238281 C24.9035807,16.0214844 23.3358724,15.3789063 21.2212891,14.9960937 L19.2388672,14.640625 C18.2544922,14.4583333 17.5389974,14.2464193 17.0923828,14.0048828 C16.6457682,13.7633464 16.4224609,13.4192708 16.4224609,12.9726563 L16.4224609,12.9589844 C16.4224609,12.6582031 16.5136068,12.3870443 16.6958984,12.1455078 C16.8781901,11.9039714 17.149349,11.7125651 17.509375,11.5712891 C17.869401,11.430013 18.313737,11.359375 18.8423828,11.359375 C19.3710286,11.359375 19.8427083,11.4322917 20.2574219,11.578125 C20.6721354,11.7239583 21.0048177,11.9267578 21.2554688,12.1865234 C21.5061198,12.4462891 21.6496745,12.7584635 21.6861328,13.1230469 L21.6998047,13.2597656 L27.0318359,13.2597656 L27.0181641,12.9589844 C26.9634766,11.7285156 26.6171224,10.6598307 25.9791016,9.75292969 C25.3410807,8.84602865 24.4205078,8.14648438 23.2173828,7.65429687 C22.0142578,7.16210938 20.533138,6.91601562 18.7740234,6.91601562 C17.2154297,6.91601562 15.8254557,7.18033854 14.6041016,7.70898438 C13.3827474,8.23763021 12.4234375,8.98502604 11.7261719,9.95117188 C11.0289063,10.9173177 10.6802734,12.0611979 10.6802734,13.3828125 L10.6802734,13.3964844 C10.6802734,14.9277344 11.2020833,16.1809896 12.2457031,17.15625 C13.2893229,18.1315104 14.7909505,18.7923177 16.7505859,19.1386719 L18.7330078,19.4941406 C19.8267578,19.6946615 20.5969401,19.9134115 21.0435547,20.1503906 C21.4901693,20.3873698 21.7134766,20.7382813 21.7134766,21.203125 L21.7134766,21.2167969 C21.7134766,21.5449219 21.5995443,21.8365885 21.3716797,22.0917969 C21.1438151,22.3470052 20.822526,22.547526 20.4078125,22.6933594 C19.993099,22.8391927 19.4940755,22.9121094 18.9107422,22.9121094 C18.3638672,22.9121094 17.8625651,22.8369141 17.4068359,22.6865234 C16.9511068,22.5361328 16.5728516,22.328776 16.2720703,22.0644531 C15.9712891,21.8001302 15.7798828,21.4902344 15.6978516,21.1347656 L15.6705078,21.0117187 L10.3384766,21.0117187 L10.3521484,21.2714844 C10.4250651,22.5657552 10.8101563,23.6663411 11.5074219,24.5732422 C12.2046875,25.4801432 13.1753906,26.1705729 14.4195313,26.6445313 C15.6636719,27.1184896 17.1379557,27.3554688 18.8423828,27.3554688 Z" id="Path" fill="#FFFFFF"></path>
                    <path d="M40.1107422,21.6132812 L46.0169922,21.6132812 C47.5573568,21.6132812 48.8903646,21.3238932 50.0160156,20.7451172 C51.1416667,20.1663411 52.0121094,19.34375 52.6273438,18.2773438 C53.2425781,17.2109375 53.5501953,15.9485677 53.5501953,14.4902344 L53.5501953,14.4628906 C53.5501953,13.0045573 53.2425781,11.7376302 52.6273438,10.6621094 C52.0121094,9.58658854 51.1416667,8.75260417 50.0160156,8.16015625 C48.8903646,7.56770833 47.5573568,7.27148438 46.0169922,7.27148438 L40.1107422,7.27148438 L40.1107422,11.6328125 L44.6361328,11.6328125 C45.5931641,11.6328125 46.3428385,11.867513 46.8851563,12.3369141 C47.427474,12.8063151 47.6986328,13.514974 47.6986328,14.4628906 L47.6986328,14.4902344 C47.6986328,15.4290365 47.427474,16.1376953 46.8851563,16.6162109 C46.3428385,17.0947266 45.5931641,17.3339844 44.6361328,17.3339844 L40.1107422,17.3339844 L40.1107422,21.6132812 Z M37.1986328,27 L42.9955078,27 L42.9955078,7.27148438 L37.1986328,7.27148438 L37.1986328,27 Z" id="Shape" fill="#FFFFFF"></path>
                    <path d="M61.0392578,27 L67.1369141,27 L71.0607422,11.9746094 L72.9474609,11.9746094 L72.9474609,7.27148438 L67.4787109,7.27148438 L61.0392578,27 Z M65.0861328,23.0761719 L77.1447266,23.0761719 L75.9416016,18.9882812 L66.2892578,18.9882812 L65.0861328,23.0761719 Z M75.0939453,27 L81.1916016,27 L74.7521484,7.27148438 L71.1701172,7.27148438 L71.1701172,11.9746094 L75.0939453,27 Z" id="Shape" fill="#171B19"></path>
                    <path d="M89.5517578,27 L97.9873047,27 C99.9833984,27 101.690104,26.6057943 103.107422,25.8173828 C104.52474,25.0289714 105.609375,23.8873698 106.361328,22.3925781 C107.113281,20.8977865 107.489258,19.0976563 107.489258,16.9921875 L107.489258,16.9648437 C107.489258,14.859375 107.113281,13.0865885 106.361328,11.6464844 C105.609375,10.2063802 104.52474,9.1171875 103.107422,8.37890625 C101.690104,7.640625 99.9833984,7.27148438 97.9873047,7.27148438 L89.5517578,7.27148438 L89.5517578,27 Z M95.3486328,22.3925781 L95.3486328,11.8789062 L97.1669922,11.8789062 C98.0875651,11.8789062 98.8782552,12.0725911 99.5390625,12.4599609 C100.19987,12.8473307 100.705729,13.4192708 101.056641,14.1757813 C101.407552,14.9322917 101.583008,15.8619792 101.583008,16.9648438 L101.583008,16.9921875 C101.583008,18.2044271 101.416667,19.2093099 101.083984,20.0068359 C100.751302,20.804362 100.256836,21.4013672 99.6005859,21.7978516 C98.9443359,22.1943359 98.133138,22.3925781 97.1669922,22.3925781 L95.3486328,22.3925781 Z" id="Shape" fill="#FFFFFF"></path>
                    <polygon id="Path" fill="#FFFFFF" points="117.32793 27 131.245898 27 131.245898 22.40625 123.124805 22.40625 123.124805 19.2753906 130.740039 19.2753906 130.740039 15.0097656 123.124805 15.0097656 123.124805 11.8652344 131.245898 11.8652344 131.245898 7.27148438 117.32793 7.27148438"></polygon>
                    <path d="M149.492773,27.3554688 C151.306576,27.3554688 152.856055,27.0843099 154.141211,26.5419922 C155.426367,25.9996745 156.408464,25.2294922 157.0875,24.2314453 C157.766536,23.2333984 158.106055,22.0553385 158.106055,20.6972656 L158.106055,20.6835938 C158.106055,19.0794271 157.595638,17.8261719 156.574805,16.9238281 C155.553971,16.0214844 153.986263,15.3789063 151.87168,14.9960937 L149.889258,14.640625 C148.904883,14.4583333 148.189388,14.2464193 147.742773,14.0048828 C147.296159,13.7633464 147.072852,13.4192708 147.072852,12.9726563 L147.072852,12.9589844 C147.072852,12.6582031 147.163997,12.3870443 147.346289,12.1455078 C147.528581,11.9039714 147.79974,11.7125651 148.159766,11.5712891 C148.519792,11.430013 148.964128,11.359375 149.492773,11.359375 C150.021419,11.359375 150.493099,11.4322917 150.907813,11.578125 C151.322526,11.7239583 151.655208,11.9267578 151.905859,12.1865234 C152.15651,12.4462891 152.300065,12.7584635 152.336523,13.1230469 L152.350195,13.2597656 L157.682227,13.2597656 L157.668555,12.9589844 C157.613867,11.7285156 157.267513,10.6598307 156.629492,9.75292969 C155.991471,8.84602865 155.070898,8.14648438 153.867773,7.65429687 C152.664648,7.16210938 151.183529,6.91601562 149.424414,6.91601562 C147.86582,6.91601562 146.475846,7.18033854 145.254492,7.70898438 C144.033138,8.23763021 143.073828,8.98502604 142.376563,9.95117188 C141.679297,10.9173177 141.330664,12.0611979 141.330664,13.3828125 L141.330664,13.3964844 C141.330664,14.9277344 141.852474,16.1809896 142.896094,17.15625 C143.939714,18.1315104 145.441341,18.7923177 147.400977,19.1386719 L149.383398,19.4941406 C150.477148,19.6946615 151.247331,19.9134115 151.693945,20.1503906 C152.14056,20.3873698 152.363867,20.7382813 152.363867,21.203125 L152.363867,21.2167969 C152.363867,21.5449219 152.249935,21.8365885 152.02207,22.0917969 C151.794206,22.3470052 151.472917,22.547526 151.058203,22.6933594 C150.64349,22.8391927 150.144466,22.9121094 149.561133,22.9121094 C149.014258,22.9121094 148.512956,22.8369141 148.057227,22.6865234 C147.601497,22.5361328 147.223242,22.328776 146.922461,22.0644531 C146.62168,21.8001302 146.430273,21.4902344 146.348242,21.1347656 L146.320898,21.0117187 L140.988867,21.0117187 L141.002539,21.2714844 C141.075456,22.5657552 141.460547,23.6663411 142.157813,24.5732422 C142.855078,25.4801432 143.825781,26.1705729 145.069922,26.6445313 C146.314063,27.1184896 147.788346,27.3554688 149.492773,27.3554688 Z" id="Path" fill="#FFFFFF"></path>
                </g>
                <g id="LUCKY" transform="translate(-0.8924, 2.7285)" fill="#3AD3AA" fill-rule="nonzero">
                    <polygon id="Path" points="1.86035156 27 15.3955078 27 15.3955078 22.40625 7.65722656 22.40625 7.65722656 7.27148438 1.86035156 7.27148438"></polygon>
                    <path d="M61.8970703,27.3554688 C63.7108724,27.3554688 65.3059245,26.9954427 66.6822266,26.2753906 C68.0585286,25.5553385 69.1363281,24.5800781 69.915625,23.3496094 C70.6949219,22.1191406 71.0845703,20.733724 71.0845703,19.1933594 L71.0845703,19.0429688 L65.5337891,19.0429688 L65.5201172,19.1933594 C65.4563151,19.8860677 65.2649089,20.4899089 64.9458984,21.0048828 C64.626888,21.5198568 64.2076172,21.9186198 63.6880859,22.2011719 C63.1685547,22.483724 62.5761068,22.625 61.9107422,22.625 C61.1177734,22.625 60.4296224,22.4108073 59.8462891,21.9824219 C59.2629557,21.5540365 58.8140625,20.9274089 58.4996094,20.1025391 C58.1851562,19.2776693 58.0279297,18.281901 58.0279297,17.1152344 L58.0279297,17.1015625 C58.0279297,15.9440104 58.1851562,14.9596354 58.4996094,14.1484375 C58.8140625,13.3372396 59.2606771,12.7174479 59.8394531,12.2890625 C60.4182292,11.8606771 61.1041016,11.6464844 61.8970703,11.6464844 C62.6171224,11.6464844 63.2346354,11.7945964 63.7496094,12.0908203 C64.2645833,12.3870443 64.6701823,12.7926432 64.9664062,13.3076172 C65.2626302,13.8225911 65.4380859,14.4082031 65.4927734,15.0644531 L65.5064453,15.2285156 L71.0572266,15.2285156 L71.0572266,15.1054687 C71.0572266,13.5559896 70.6744141,12.163737 69.9087891,10.9287109 C69.1431641,9.6936849 68.0744792,8.71614583 66.7027344,7.99609375 C65.3309896,7.27604167 63.7291016,6.91601562 61.8970703,6.91601562 C59.891862,6.91601562 58.1578125,7.31477865 56.6949219,8.11230469 C55.2320313,8.90983073 54.1041016,10.0673828 53.3111328,11.5849609 C52.5181641,13.1025391 52.1216797,14.9459635 52.1216797,17.1152344 L52.1216797,17.1289062 C52.1216797,19.2981771 52.5158854,21.1438802 53.3042969,22.6660156 C54.0927083,24.188151 55.2183594,25.3502604 56.68125,26.1523437 C58.1441406,26.9544271 59.8827474,27.3554688 61.8970703,27.3554688 Z" id="Path"></path>
                    <path d="M86.5150391,22.0097656 L90.8216797,16.2128906 L92.3119141,16.2128906 L98.9427734,7.27148438 L92.8587891,7.27148438 L86.7611328,15.6386719 L86.5150391,15.6386719 L86.5150391,22.0097656 Z M80.8548828,27 L86.6517578,27 L86.6517578,7.27148438 L80.8548828,7.27148438 L80.8548828,27 Z M92.5033203,27 L99.2435547,27 L91.2318359,14.0527344 L86.9935547,17.7167969 L92.5033203,27 Z" id="Shape"></path>
                    <polygon id="Path" points="113.976758 27 119.773633 27 119.773633 20.7519531 126.513867 7.27148438 120.388867 7.27148438 116.929883 15.2695312 116.820508 15.2695312 113.361523 7.27148438 107.236523 7.27148438 113.976758 20.7519531"></polygon>
                </g>
            </g>
        </g>
    </g>
</svg>